<svg id="Group_7834" data-name="Group 7834" xmlns="http://www.w3.org/2000/svg" xmlns:xlink="http://www.w3.org/1999/xlink" width="57.516" height="70.509" viewBox="0 0 57.516 70.509">
  <defs>
    <clipPath id="clip-path">
      <rect id="Rectangle_3560" data-name="Rectangle 3560" width="57.516" height="70.509" fill="none" stroke="#707070" stroke-width="2"/>
    </clipPath>
  </defs>
  <line id="Line_117" data-name="Line 117" y2="30.387" transform="translate(46.861 8.818)" fill="none" stroke="#344d61" stroke-linecap="round" stroke-linejoin="round" stroke-width="2"/>
  <g id="Group_7831" data-name="Group 7831">
    <g id="Group_7830" data-name="Group 7830" clip-path="url(#clip-path)">
      <path id="Path_11055" data-name="Path 11055" d="M31.079,70.714H9.7V9.7H47.742" transform="translate(-8.574 -8.574)" fill="none" stroke="#344d61" stroke-linecap="round" stroke-linejoin="round" stroke-width="2"/>
    </g>
  </g>
  <path id="Path_11056" data-name="Path 11056" d="M68.424,140.446l3.067,2.8,6.206-7.593" transform="translate(-60.482 -119.909)" fill="none" stroke="#344d61" stroke-linecap="round" stroke-linejoin="round" stroke-width="2"/>
  <line id="Line_118" data-name="Line 118" x2="15.114" transform="translate(24.931 21.973)" fill="none" stroke="#344d61" stroke-linecap="round" stroke-linejoin="round" stroke-width="2"/>
  <line id="Line_119" data-name="Line 119" x2="8.542" transform="translate(24.931 16.022)" fill="none" stroke="#344d61" stroke-linecap="round" stroke-linejoin="round" stroke-width="2"/>
  <path id="Path_11057" data-name="Path 11057" d="M68.424,277.155l3.067,2.8,6.206-7.593" transform="translate(-60.482 -240.751)" fill="none" stroke="#344d61" stroke-linecap="round" stroke-linejoin="round" stroke-width="2"/>
  <line id="Line_120" data-name="Line 120" x2="15.114" transform="translate(24.931 37.84)" fill="none" stroke="#344d61" stroke-linecap="round" stroke-linejoin="round" stroke-width="2"/>
  <line id="Line_121" data-name="Line 121" x2="8.542" transform="translate(24.931 31.89)" fill="none" stroke="#344d61" stroke-linecap="round" stroke-linejoin="round" stroke-width="2"/>
  <path id="Path_11058" data-name="Path 11058" d="M68.424,413.864l3.067,2.8,6.206-7.593" transform="translate(-60.482 -361.593)" fill="none" stroke="#344d61" stroke-linecap="round" stroke-linejoin="round" stroke-width="2"/>
  <g id="Group_7833" data-name="Group 7833">
    <g id="Group_7832" data-name="Group 7832" clip-path="url(#clip-path)">
      <path id="Path_11059" data-name="Path 11059" d="M345.157,17.393h-7.692V9.7Z" transform="translate(-298.297 -8.574)" fill="none" stroke="#344d61" stroke-linecap="round" stroke-linejoin="round" stroke-width="2"/>
      <path id="Path_11060" data-name="Path 11060" d="M271.385,502.062v8.661a2.306,2.306,0,0,1-2.128,2.45H246.868a2.306,2.306,0,0,1-2.128-2.45v-8.661" transform="translate(-216.335 -443.79)" fill="none" stroke="#344d61" stroke-linecap="round" stroke-linejoin="round" stroke-width="2"/>
      <path id="Path_11061" data-name="Path 11061" d="M247.863,437.483s8.407-1.12,13.219-5.257a4.358,4.358,0,0,0,1.443-3.3V425.4a2.306,2.306,0,0,0-2.128-2.45H235.329a2.306,2.306,0,0,0-2.128,2.45v3.52a4.358,4.358,0,0,0,1.443,3.3C239.455,436.363,247.863,437.483,247.863,437.483Z" transform="translate(-206.134 -373.863)" fill="none" stroke="#344d61" stroke-linecap="round" stroke-linejoin="round" stroke-width="2"/>
      <path id="Path_11062" data-name="Path 11062" d="M321.314,391.239H309.763l.831-2.353a2.43,2.43,0,0,1,2.152-1.811h5.584a2.43,2.43,0,0,1,2.152,1.811Z" transform="translate(-273.81 -342.149)" fill="none" stroke="#344d61" stroke-linecap="round" stroke-linejoin="round" stroke-width="2"/>
      <path id="Path_11063" data-name="Path 11063" d="M342.849,544v1.536a1.526,1.526,0,0,1-1.526,1.526h-1.988a1.526,1.526,0,0,1-1.526-1.526V544" transform="translate(-298.6 -480.859)" fill="#344d61" stroke="#707070" stroke-width="2"/>
    </g>
  </g>
</svg>
