<svg id="Group_7850" data-name="Group 7850" xmlns="http://www.w3.org/2000/svg" xmlns:xlink="http://www.w3.org/1999/xlink" width="62.653" height="40.075" viewBox="0 0 62.653 40.075">
  <defs>
    <clipPath id="clip-path">
      <rect id="Rectangle_3568" data-name="Rectangle 3568" width="62.653" height="40.075" fill="none" stroke="#344d61" stroke-width="1"/>
    </clipPath>
    <clipPath id="clip-path-2">
      <rect id="Rectangle_3570" data-name="Rectangle 3570" width="62.653" height="40.075" fill="none"/>
    </clipPath>
  </defs>
  <g id="Group_7847" data-name="Group 7847">
    <g id="Group_7846" data-name="Group 7846" clip-path="url(#clip-path)">
      <path id="Path_11080" data-name="Path 11080" d="M2.915,17.983V5.758H16.459" transform="translate(-2.239 -4.422)" fill="none" stroke="#344d61" stroke-linecap="round" stroke-linejoin="round" stroke-width="2"/>
      <path id="Path_11081" data-name="Path 11081" d="M17.983,124.993H5.757V111.449" transform="translate(-4.422 -85.594)" fill="none" stroke="#344d61" stroke-linecap="round" stroke-linejoin="round" stroke-width="2"/>
      <path id="Path_11082" data-name="Path 11082" d="M222.313,114.291v12.225H208.77" transform="translate(-160.337 -87.776)" fill="none" stroke="#344d61" stroke-linecap="round" stroke-linejoin="round" stroke-width="2"/>
      <path id="Path_11083" data-name="Path 11083" d="M211.612,2.915h12.225V16.459" transform="translate(-162.52 -2.239)" fill="none" stroke="#344d61" stroke-linecap="round" stroke-linejoin="round" stroke-width="2"/>
    </g>
  </g>
  <path id="Path_11084" data-name="Path 11084" d="M70.62,76.369H62.011v-12.3h2.461v9.835H70.62Z" transform="translate(-47.625 -49.209)" fill="#344d61"/>
  <rect id="Rectangle_3569" data-name="Rectangle 3569" width="2.461" height="12.296" transform="translate(24.273 14.864)" fill="#344d61"/>
  <path id="Path_11085" data-name="Path 11085" d="M130.748,64.073l-4.039,12.3h-2.461l-4.022-12.3h2.8l2.453,8.206,2.461-8.206Z" transform="translate(-92.335 -49.209)" fill="#344d61"/>
  <path id="Path_11086" data-name="Path 11086" d="M179.072,76.369h-8.429v-12.3h8.429v2.461H173.1V69h4.039v2.461H173.1v2.452h5.968Z" transform="translate(-131.055 -49.209)" fill="#344d61"/>
  <g id="Group_7849" data-name="Group 7849">
    <g id="Group_7848" data-name="Group 7848" clip-path="url(#clip-path-2)">
      <path id="Path_11087" data-name="Path 11087" d="M99.6,31.969a2.309,2.309,0,1,1-2.309-2.309A2.309,2.309,0,0,1,99.6,31.969" transform="translate(-71.821 -21.653)" fill="#fa3f34"/>
    </g>
  </g>
</svg>
