<svg id="Group_5248" data-name="Group 5248" xmlns="http://www.w3.org/2000/svg" width="170.321" height="51.796" viewBox="0 0 170.321 51.796">
  <g id="Group_5247" data-name="Group 5247">
    <rect id="Rectangle_3371" data-name="Rectangle 3371" width="170.321" height="51.796" rx="5" fill="#0d1435"/>
    <g id="Group_5242" data-name="Group 5242" transform="translate(43.326 6.995)">
      <text id="Available_on_the" data-name="Available on the" transform="translate(38 9)" fill="#fff" font-size="9" font-family="Montserrat-Light, Montserrat" font-weight="300"><tspan x="-35.492" y="0">Available on the</tspan></text>
      <text id="Google_Play" data-name="Google Play" transform="translate(58 28.983)" fill="#fff" font-size="18" font-family="Montserrat-SemiBold, Montserrat" font-weight="600"><tspan x="-55.197" y="0">Google Play</tspan></text>
    </g>
    <g id="Group_5246" data-name="Group 5246" transform="translate(10.321 11.558)">
      <g id="Group_5245" data-name="Group 5245">
        <g id="Group_5244" data-name="Group 5244">
          <g id="Group_5243" data-name="Group 5243">
            <path id="Path_9779" data-name="Path 9779" d="M347.231,426.88l-5.452-3.146-4.486,4.336,4.1,3.962,5.84-3.37a1.03,1.03,0,0,0,0-1.781Z" transform="translate(-320.81 -412.996)" fill="#fb2700"/>
            <path id="Path_9780" data-name="Path 9780" d="M350.939,430.146l-6-3.464-13.151-6.739L346.641,434.3Z" transform="translate(-330.896 -419.943)" fill="#fb2700"/>
            <path id="Path_9781" data-name="Path 9781" d="M331.865,439.664l12.955-7.136,5.592-3.228-3.912-3.782Z" transform="translate(-330.755 -409.73)" fill="#fb2700"/>
            <path id="Path_9782" data-name="Path 9782" d="M331.487,420.148l-.014,29,15.005-14.505Z" transform="translate(-331.473 -419.567)" fill="#fb2700"/>
          </g>
        </g>
      </g>
    </g>
  </g>
</svg>
