<svg id="Group_7870" data-name="Group 7870" xmlns="http://www.w3.org/2000/svg" xmlns:xlink="http://www.w3.org/1999/xlink" width="77.622" height="75.679" viewBox="0 0 77.622 75.679">
  <defs>
    <clipPath id="clip-path">
      <rect id="Rectangle_3583" data-name="Rectangle 3583" width="77.622" height="75.679" fill="none" stroke="#707070" stroke-width="3"/>
    </clipPath>
  </defs>
  <g id="Group_7869" data-name="Group 7869" clip-path="url(#clip-path)">
    <rect id="Rectangle_3579" data-name="Rectangle 3579" width="7.977" height="9.657" rx="3.989" transform="translate(34.821 50.251)" fill="none" stroke="#344d61" stroke-linecap="round" stroke-linejoin="round" stroke-width="3"/>
    <path id="Path_11119" data-name="Path 11119" d="M240.716,480.314v3l-17.636.006v-3.009a7.842,7.842,0,0,1,7.843-7.843h1.945a7.846,7.846,0,0,1,7.848,7.843Z" transform="translate(-193.087 -408.948)" fill="none" stroke="#344d61" stroke-linecap="round" stroke-linejoin="round" stroke-width="3"/>
    <rect id="Rectangle_3580" data-name="Rectangle 3580" width="7.977" height="9.657" rx="3.989" transform="translate(6.132 50.251)" fill="none" stroke="#344d61" stroke-linecap="round" stroke-linejoin="round" stroke-width="3"/>
    <path id="Path_11120" data-name="Path 11120" d="M27.336,480.314v3L9.7,483.323v-3.009a7.842,7.842,0,0,1,7.842-7.843h1.946a7.846,7.846,0,0,1,7.848,7.843Z" transform="translate(-8.396 -408.948)" fill="none" stroke="#344d61" stroke-linecap="round" stroke-linejoin="round" stroke-width="3"/>
    <path id="Rectangle_3581" data-name="Rectangle 3581" d="M3.988,0h0A3.989,3.989,0,0,1,7.977,3.989v1.68A3.989,3.989,0,0,1,3.988,9.657h0A3.988,3.988,0,0,1,0,5.669V3.988A3.988,3.988,0,0,1,3.988,0Z" transform="translate(63.51 50.251)" fill="none" stroke="#344d61" stroke-linecap="round" stroke-linejoin="round" stroke-width="3"/>
    <path id="Path_11121" data-name="Path 11121" d="M454.1,480.314v3l-17.636.006v-3.009a7.842,7.842,0,0,1,7.843-7.843h1.945a7.846,7.846,0,0,1,7.848,7.843Z" transform="translate(-377.779 -408.948)" fill="none" stroke="#344d61" stroke-linecap="round" stroke-linejoin="round" stroke-width="3"/>
    <rect id="Rectangle_3582" data-name="Rectangle 3582" width="8.392" height="10.16" rx="4.196" transform="translate(34.614 7.485)" fill="none" stroke="#344d61" stroke-linecap="round" stroke-linejoin="round" stroke-width="3"/>
    <path id="Path_11122" data-name="Path 11122" d="M238.23,160.461v1.745a16.183,16.183,0,0,1-2.92,1.642,16.025,16.025,0,0,1-15.631-1.642v-1.745a8.248,8.248,0,0,1,8.253-8.253h2.045a8.151,8.151,0,0,1,3.308.693,8.241,8.241,0,0,1,4.945,7.56Z" transform="translate(-190.144 -131.744)" fill="none" stroke="#344d61" stroke-linecap="round" stroke-linejoin="round" stroke-width="3"/>
    <path id="Path_11123" data-name="Path 11123" d="M201.372,25.753a16.032,16.032,0,0,1-6.778,13.1V37.113a8.256,8.256,0,0,0-8.253-8.253H184.3a8.248,8.248,0,0,0-8.253,8.253v1.745a16.054,16.054,0,1,1,25.329-13.1Z" transform="translate(-146.507 -8.396)" fill="none" stroke="#344d61" stroke-linecap="round" stroke-linejoin="round" stroke-width="3"/>
    <line id="Line_150" data-name="Line 150" y2="8.607" transform="translate(38.811 33.411)" fill="none" stroke="#344d61" stroke-linecap="round" stroke-linejoin="round" stroke-width="3"/>
    <path id="Path_11124" data-name="Path 11124" d="M273.067,298.589a2.869,2.869,0,1,0-2.869,2.869A2.869,2.869,0,0,0,273.067,298.589Z" transform="translate(-231.387 -255.961)" fill="none" stroke="#344d61" stroke-linecap="round" stroke-linejoin="round" stroke-width="3"/>
    <line id="Line_151" data-name="Line 151" x1="10.208" y2="10.208" transform="translate(19.785 31.059)" fill="none" stroke="#344d61" stroke-linecap="round" stroke-linejoin="round" stroke-width="3"/>
    <circle id="Ellipse_1196" data-name="Ellipse 1196" cx="2.869" cy="2.869" r="2.869" transform="translate(16.485 38.83)" fill="none" stroke="#344d61" stroke-linecap="round" stroke-linejoin="round" stroke-width="3"/>
    <line id="Line_152" data-name="Line 152" x2="10.278" y2="10.278" transform="translate(47.559 30.989)" fill="none" stroke="#344d61" stroke-linecap="round" stroke-linejoin="round" stroke-width="3"/>
    <circle id="Ellipse_1197" data-name="Ellipse 1197" cx="2.869" cy="2.869" r="2.869" transform="translate(55.4 38.83)" fill="none" stroke="#344d61" stroke-linecap="round" stroke-linejoin="round" stroke-width="3"/>
  </g>
</svg>
