<svg id="Group_7858" data-name="Group 7858" xmlns="http://www.w3.org/2000/svg" xmlns:xlink="http://www.w3.org/1999/xlink" width="76.623" height="76.623" viewBox="0 0 76.623 76.623">
  <defs>
    <clipPath id="clip-path">
      <rect id="Rectangle_3575" data-name="Rectangle 3575" width="76.623" height="76.623" fill="none" stroke="#707070" stroke-width="3"/>
    </clipPath>
  </defs>
  <g id="Group_7857" data-name="Group 7857" clip-path="url(#clip-path)">
    <path id="Path_11093" data-name="Path 11093" d="M208.038,329.454v3.084a23.781,23.781,0,0,1-27.783-.426v-2.659A12.353,12.353,0,0,1,192.6,317.093h3.073A12.363,12.363,0,0,1,208.038,329.454Z" transform="translate(-156.134 -274.661)" fill="none" stroke="#344d61" stroke-linecap="round" stroke-linejoin="round" stroke-width="3"/>
    <path id="Path_11094" data-name="Path 11094" d="M243.374,188.664h0a6.282,6.282,0,0,1-6.283-6.283v-2.647a6.282,6.282,0,0,1,6.283-6.283h0a6.282,6.282,0,0,1,6.283,6.283v2.648A6.282,6.282,0,0,1,243.374,188.664Z" transform="translate(-205.365 -150.241)" fill="none" stroke="#344d61" stroke-linecap="round" stroke-linejoin="round" stroke-width="3"/>
    <path id="Path_11095" data-name="Path 11095" d="M155.84,132.015a23.83,23.83,0,1,1-23.824-23.836A23.774,23.774,0,0,1,155.84,132.015Z" transform="translate(-93.704 -93.703)" fill="none" stroke="#344d61" stroke-linecap="round" stroke-linejoin="round" stroke-width="3"/>
    <path id="Path_11096" data-name="Path 11096" d="M77.973,39.566l-4.1-9.909,2.095-6.031-3.084-3.084L69.8,17.457,63.77,19.552l-9.909-4.1L51.064,9.7H42.352l-2.785,5.755-9.91,4.1-6.031-2.095-3.084,3.085-3.085,3.084,2.095,6.031-4.1,9.909L9.7,42.352v8.724l5.755,2.785,4.1,9.909L17.457,69.8l6.169,6.169,6.031-2.095,9.91,4.1,2.785,5.754h8.712l2.8-5.754,9.909-4.1L69.8,75.97,75.97,69.8,73.875,63.77l4.1-9.909,5.755-2.785V42.352ZM60.306,66.279A23.831,23.831,0,1,1,70.538,46.714,23.65,23.65,0,0,1,60.306,66.279Z" transform="translate(-8.402 -8.402)" fill="none" stroke="#344d61" stroke-linecap="round" stroke-linejoin="round" stroke-width="3"/>
    <path id="Path_11097" data-name="Path 11097" d="M155.84,132.015a23.83,23.83,0,1,1-23.824-23.836A23.774,23.774,0,0,1,155.84,132.015Z" transform="translate(-93.704 -93.703)" fill="none" stroke="#344d61" stroke-linecap="round" stroke-linejoin="round" stroke-width="3"/>
  </g>
</svg>
